<svg width="75" height="75" viewBox="0 0 75 75" fill="none" xmlns="http://www.w3.org/2000/svg">
<path d="M28.125 31.25V37.5H21.875V31.25H28.125ZM40.625 31.25V37.5H34.375V31.25H40.625ZM53.125 31.25V37.5H46.875V31.25H53.125ZM59.375 9.375C61.0326 9.375 62.6223 10.0335 63.7944 11.2056C64.9665 12.3777 65.625 13.9674 65.625 15.625V59.375C65.625 61.0326 64.9665 62.6223 63.7944 63.7944C62.6223 64.9665 61.0326 65.625 59.375 65.625H15.625C13.9674 65.625 12.3777 64.9665 11.2056 63.7944C10.0335 62.6223 9.375 61.0326 9.375 59.375V15.625C9.375 13.9674 10.0335 12.3777 11.2056 11.2056C12.3777 10.0335 13.9674 9.375 15.625 9.375H18.75V3.125H25V9.375H50V3.125H56.25V9.375H59.375ZM59.375 59.375V25H15.625V59.375H59.375ZM28.125 43.75V50H21.875V43.75H28.125ZM40.625 43.75V50H34.375V43.75H40.625ZM53.125 43.75V50H46.875V43.75H53.125Z" fill="#214975"/>
</svg>
