<svg width="25" height="25" viewBox="0 0 25 25" fill="none" xmlns="http://www.w3.org/2000/svg">
<path d="M22.1704 8.62013L15.9716 7.71925L13.2006 2.10157C13.125 1.94776 13.0005 1.82325 12.8466 1.74757C12.4609 1.55714 11.9921 1.71583 11.7993 2.10157L9.02828 7.71925L2.82955 8.62013C2.65865 8.64454 2.5024 8.72511 2.38277 8.84718C2.23815 8.99583 2.15845 9.19581 2.1612 9.40319C2.16395 9.61056 2.24891 9.80837 2.39742 9.95313L6.88229 14.3257L5.82272 20.5C5.79787 20.6436 5.81376 20.7914 5.86859 20.9264C5.92343 21.0615 6.015 21.1785 6.13294 21.2641C6.25088 21.3498 6.39046 21.4007 6.53585 21.411C6.68124 21.4214 6.82663 21.3908 6.95553 21.3228L12.5 18.4077L18.0444 21.3228C18.1958 21.4033 18.3715 21.4302 18.54 21.4009C18.9648 21.3276 19.2505 20.9248 19.1772 20.5L18.1176 14.3257L22.6025 9.95313C22.7246 9.83351 22.8051 9.67726 22.8296 9.50636C22.8955 9.07911 22.5976 8.6836 22.1704 8.62013Z" fill="#FEA250"/>
</svg>
