<svg width="65" height="65" viewBox="0 0 65 65" fill="none" xmlns="http://www.w3.org/2000/svg">
<g clip-path="url(#clip0_108_2501)">
<path d="M55.25 33.3775V16.2175C55.25 15.3555 54.9076 14.5289 54.2981 13.9194C53.6886 13.3099 52.862 12.9675 52 12.9675C51.1381 12.9675 50.3114 13.3099 49.7019 13.9194C49.0924 14.5289 48.75 15.3555 48.75 16.2175V48.75C48.75 53.0598 47.038 57.193 43.9905 60.2405C40.943 63.288 36.8098 65 32.5 65C28.1902 65 24.057 63.288 21.0095 60.2405C17.9621 57.193 16.25 53.0598 16.25 48.75V45.24C11.7041 44.4716 7.57739 42.1173 4.60252 38.5951C1.62765 35.0728 -0.00300799 30.6104 4.16558e-06 26V6.5C4.16558e-06 2.925 2.925 0 6.5 0H9.75C10.612 0 11.4386 0.34241 12.0481 0.951903C12.6576 1.5614 13 2.38805 13 3.25C13 4.11195 12.6576 4.9386 12.0481 5.5481C11.4386 6.15759 10.612 6.5 9.75 6.5H6.5V26C6.5 29.4478 7.86964 32.7544 10.3076 35.1924C12.7456 37.6304 16.0522 39 19.5 39C22.9478 39 26.2544 37.6304 28.6924 35.1924C31.1304 32.7544 32.5 29.4478 32.5 26V6.5H29.25C28.3881 6.5 27.5614 6.15759 26.9519 5.5481C26.3424 4.9386 26 4.11195 26 3.25C26 2.38805 26.3424 1.5614 26.9519 0.951903C27.5614 0.34241 28.3881 0 29.25 0L32.5 0C34.2239 0 35.8772 0.68482 37.0962 1.90381C38.3152 3.12279 39 4.77609 39 6.5V26C39.003 30.6104 37.3724 35.0728 34.3975 38.5951C31.4226 42.1173 27.296 44.4716 22.75 45.24V48.75C22.75 51.3359 23.7772 53.8158 25.6057 55.6443C27.4342 57.4728 29.9141 58.5 32.5 58.5C35.0859 58.5 37.5658 57.4728 39.3943 55.6443C41.2228 53.8158 42.25 51.3359 42.25 48.75V16.25C42.25 13.6641 43.2772 11.1842 45.1057 9.35571C46.9342 7.52723 49.4141 6.5 52 6.5C54.5859 6.5 57.0658 7.52723 58.8943 9.35571C60.7228 11.1842 61.75 13.6641 61.75 16.25V33.3775C62.9892 34.0929 63.9577 35.1973 64.5052 36.5192C65.0528 37.8412 65.1489 39.3069 64.7785 40.689C64.4082 42.0711 63.5921 43.2924 62.457 44.1635C61.3218 45.0345 59.9309 45.5067 58.5 45.5067C57.0691 45.5067 55.6782 45.0345 54.5431 44.1635C53.4079 43.2924 52.5918 42.0711 52.2215 40.689C51.8512 39.3069 51.9472 37.8412 52.4948 36.5192C53.0424 35.1973 54.0108 34.0929 55.25 33.3775Z" fill="#214975"/>
</g>
<defs>
<clipPath id="clip0_108_2501">
<rect width="65" height="65" fill="white"/>
</clipPath>
</defs>
</svg>
