<svg width="75" height="75" viewBox="0 0 75 75" fill="none" xmlns="http://www.w3.org/2000/svg">
<path d="M37.5 62.5C31.6984 62.5 26.1344 60.1953 22.032 56.093C17.9297 51.9906 15.625 46.4266 15.625 40.625C15.625 34.8234 17.9297 29.2594 22.032 25.157C26.1344 21.0547 31.6984 18.75 37.5 18.75C43.3016 18.75 48.8656 21.0547 52.968 25.157C57.0703 29.2594 59.375 34.8234 59.375 40.625C59.375 46.4266 57.0703 51.9906 52.968 56.093C48.8656 60.1953 43.3016 62.5 37.5 62.5ZM37.5 12.5C30.0408 12.5 22.8871 15.4632 17.6126 20.7376C12.3382 26.0121 9.375 33.1658 9.375 40.625C9.375 48.0842 12.3382 55.2379 17.6126 60.5124C22.8871 65.7868 30.0408 68.75 37.5 68.75C44.9592 68.75 52.1129 65.7868 57.3874 60.5124C62.6618 55.2379 65.625 48.0842 65.625 40.625C65.625 33.1658 62.6618 26.0121 57.3874 20.7376C52.1129 15.4632 44.9592 12.5 37.5 12.5ZM39.0625 25H34.375V43.75L49.2188 52.6562L51.5625 48.8125L39.0625 41.4062V25ZM24.625 10.5938L20.625 5.8125L6.25 17.8437L10.2812 22.625L24.625 10.5938ZM68.75 17.875L54.375 5.8125L50.3438 10.5938L64.7187 22.6562L68.75 17.875Z" fill="#214975"/>
</svg>
